Coordinates
version=1
nRows=19
nColumns=36
inDegrees=yes

Units are S.I. units (second, meters, Newtons, ...)
If the header above contains a line with 'inDegrees', this indicates whether rotational values are in degrees (yes) or radians (no).

endheader
time	pelvis_tilt	pelvis_list	pelvis_rotation	pelvis_tx	pelvis_ty	pelvis_tz	hip_flexion_r	hip_adduction_r	hip_rotation_r	knee_angle_r	knee_angle_r_beta	ankle_angle_r	subtalar_angle_r	mtp_angle_r	hip_flexion_l	hip_adduction_l	hip_rotation_l	knee_angle_l	knee_angle_l_beta	ankle_angle_l	subtalar_angle_l	mtp_angle_l	lumbar_extension	lumbar_bending	lumbar_rotation	arm_flex_r	arm_add_r	arm_rot_r	elbow_flex_r	pro_sup_r	arm_flex_l	arm_add_l	arm_rot_l	elbow_flex_l	pro_sup_l
      2.18333330	    -22.58577027	      0.54622811	      1.78480515	     -0.30306811	      0.78415731	      0.10495931	     65.06709837	     -9.87875629	     -1.79946232	     56.88405828	      0.99281411	     17.83416325	     -2.30468214	     -7.49999987	     63.57474418	    -10.17072157	     -0.77980178	     53.68975209	      0.93706295	     14.28823743	      3.06462569	     -7.49999987	    -18.08448935	     -2.38178863	     -2.35608656	     52.82528961	      1.22839847	     71.64990516	    126.50239795	    101.65994399	     52.55447533	     -5.56684784	     67.37210177	    132.69675260	     95.58342544
      2.20000000	    -21.86097207	      0.63462544	      1.67925639	     -0.30322521	      0.79196760	      0.10329815	     62.83517494	     -9.78774546	     -1.94458435	     54.65459066	      0.95390256	     17.16797511	     -2.57546026	     -7.49999987	     61.20245148	    -10.08083413	     -1.28089551	     51.60984617	      0.90076174	     13.75177924	      3.49480107	     -7.49999987	    -16.63991507	     -2.45479387	     -2.36697319	     51.75047978	      1.38578987	     70.77364055	    126.37313756	    101.51861994	     51.39003095	     -5.50572442	     66.66357573	    132.85615987	     95.31755851
      2.21666670	    -20.95602034	      0.64934719	      1.70733515	     -0.29639802	      0.80594949	      0.10311915	     59.91388436	     -9.66507816	     -2.20315632	     52.03652670	      0.90820872	     16.18407288	     -2.56112696	     -7.49999987	     58.41723299	     -9.83695009	     -1.49962907	     48.94630759	      0.85427422	     12.94761327	      3.69538179	     -7.49999987	    -15.39478353	     -2.34779367	     -2.37232712	     50.28929817	      1.49757823	     69.49862072	    125.76536248	    100.28313531	     49.88056706	     -5.49258673	     65.87610188	    132.89473346	     93.04693603
      2.23333330	    -20.46678828	      0.66614101	      1.91535154	     -0.29092737	      0.81079786	      0.10143107	     57.36289390	     -9.78003261	     -2.52497922	     49.44050915	      0.86289967	     15.79693710	     -2.50965268	     -7.49999987	     56.08337372	     -9.48455471	     -1.67780112	     46.59859929	      0.81329898	     13.03721058	      4.39147209	     -7.49999987	    -13.64670041	     -2.28798058	     -2.44488536	     48.49180654	      1.56300580	     68.43434272	    125.75676031	    100.08891736	     48.45458355	     -5.20417492	     65.28811097	    133.05817589	     92.22929863
      2.25000000	    -20.17627464	      0.67587800	      1.98558135	     -0.28874256	      0.81768494	      0.10034690	     55.21951153	     -9.80192893	     -2.84323031	     46.80119252	      0.81683490	     15.41776964	     -2.16508840	     -7.49999987	     54.20032766	     -9.18271875	     -1.77285337	     44.54732694	      0.77749753	     12.72126405	      4.56090529	     -7.49999987	    -11.78835963	     -2.22495250	     -2.37858061	     46.94866360	      1.59098486	     67.11022577	    125.93383843	     99.96770970	     47.11977402	     -4.90929999	     64.37451541	    133.35119552	     92.07642964
      2.26666670	    -19.89467966	      0.65254683	      2.21239695	     -0.28140432	      0.82277076	      0.10004574	     53.10967339	     -9.79738416	     -3.10444007	     44.43737136	      0.77557844	     15.66070782	     -1.65217953	     -7.49999987	     52.41332642	     -8.91065410	     -1.77549744	     42.52208629	      0.74215041	     12.44645473	      5.00019381	     -7.49999987	     -9.75662047	     -2.12388578	     -2.35209394	     45.37462152	      1.72730041	     66.37953577	    126.01655852	     99.21474724	     45.54707655	     -4.61518427	     63.47305282	    133.48679083	     91.17249083
      2.28333330	    -19.32685680	      0.54416750	      2.25626437	     -0.27815883	      0.83817842	      0.09876448	     50.28042434	     -9.59671338	     -3.62659602	     41.09422280	      0.71722949	     14.91873494	     -1.14277566	     -7.49999987	     49.91439031	     -8.71531805	     -1.80268026	     39.72735095	      0.69337308	     11.33061011	      5.58322167	     -7.49999987	     -8.51306358	     -1.83918983	     -2.27289625	     44.41159460	      1.78132586	     65.81979734	    125.96669270	     98.33973771	     43.76921726	     -4.37055640	     62.70171032	    133.88433106	     90.51235531
      2.30000000	    -19.02837534	      0.41886325	      2.34634041	     -0.27464285	      0.84496471	      0.09891745	     48.00216984	     -9.32601585	     -3.95131753	     37.96029479	      0.66253213	     14.29018290	     -0.37115987	     -7.49999987	     47.78978511	     -8.58036985	     -1.78644020	     36.84830899	      0.64312432	     10.26423536	      5.83004595	     -7.49999987	     -6.84749221	     -1.61223521	     -2.08579589	     43.20668393	      1.86221596	     65.38821663	    126.04718627	     96.79411604	     42.05461409	     -3.98928719	     61.99708608	    134.18472544	     88.49995067
      2.31666670	    -18.13544132	      0.25277776	      2.63666316	     -0.26702164	      0.84932904	      0.09871444	     45.04785891	     -9.16929207	     -4.58268959	     34.96710156	      0.61029105	     14.36523153	      0.32757159	     -7.49999987	     45.09917200	     -8.51844032	     -1.89643443	     34.33110126	      0.59919075	      9.84434665	      6.37951101	     -7.49999987	     -5.94147490	     -1.37802324	     -2.20014268	     42.14163870	      2.11562076	     65.44928923	    126.25759272	     96.64333223	     41.38655430	     -3.63105710	     61.33102395	    134.13796531	     88.46404275
      2.33333330	    -17.73127608	      0.15308217	      2.93156974	     -0.26224035	      0.85780559	      0.09705141	     42.70002213	     -9.08141620	     -4.99628792	     32.05341750	      0.55943767	     13.71790429	      0.76089523	     -7.49999987	     42.87830933	     -8.32552084	     -2.18151170	     31.56517190	      0.55091618	      9.13041732	      6.71493848	     -7.49999987	     -4.53174886	     -1.24494977	     -2.29625579	     40.61172762	      2.33928736	     65.47778854	    126.54354692	     96.55103205	     40.35194502	     -3.18401565	     60.84513718	    134.07830145	     88.19663271
      2.35000000	    -16.85923758	      0.00812305	      2.88787040	     -0.25673198	      0.86381653	      0.09693141	     39.98988615	     -8.71648796	     -5.42137132	     29.33549140	      0.51200091	     12.81149022	      0.88722060	     -7.49999987	     40.24026247	     -8.35783836	     -2.32542816	     28.98943024	      0.50596101	      8.56449291	      7.17146689	     -7.49999987	     -3.59156470	     -1.06042868	     -2.20613723	     39.39702326	      2.57494789	     65.61836513	    127.03431291	     95.28375234	     39.37046301	     -2.83021839	     60.46227534	    134.06555767	     87.21682053
      2.36666670	    -16.30941484	     -0.06941778	      2.77560170	     -0.25361871	      0.86978206	      0.09641892	     37.90403209	     -8.39966800	     -5.76545030	     26.93604759	      0.47012272	     11.85107510	      0.82592484	     -7.49999987	     38.11145703	     -8.29680989	     -2.60738082	     26.38761556	      0.46055077	      7.83279287	      7.22608571	     -7.49999987	     -2.58406877	     -0.92041971	     -2.05311454	     38.41435654	      2.84614659	     66.29707122	    127.46690383	     93.21673605	     38.45022749	     -2.63595240	     60.42515412	    134.33791631	     84.99172224
      2.38333330	    -15.22154681	     -0.21370867	      2.66852778	     -0.24770254	      0.88108262	      0.09591533	     34.91073967	     -7.94527275	     -6.18067562	     24.03748410	      0.41953324	     10.57261892	      0.91663886	     -7.49999987	     35.15841825	     -8.36298737	     -2.76055364	     23.58482924	      0.41163292	      6.78046454	      7.74855990	     -7.49999987	     -2.12651772	     -0.68190928	     -1.78614553	     37.90773338	      2.86939362	     65.99691969	    127.31269015	     92.86797145	     37.45844226	     -2.59836725	     59.95766206	    134.28446718	     83.55545689
      2.40000000	    -14.22156890	     -0.25798579	      2.38069518	     -0.24749221	      0.89155174	      0.09450356	     32.22116203	     -7.61247433	     -6.40845448	     21.52521500	      0.37568587	      9.48705442	      1.55792260	     -7.49999987	     32.54865357	     -8.27098308	     -2.69842519	     21.10675901	      0.36838244	      5.65624910	      7.86231686	     -7.49999987	     -1.97268799	     -0.39955881	     -1.45513052	     37.90299917	      2.73937743	     65.59732363	    126.99373630	     92.55160585	     36.46200843	     -2.59056055	     59.58495023	    134.54072550	     83.19540597
      2.41666670	    -12.88408325	     -0.32819014	      2.21559439	     -0.24153119	      0.89558345	      0.09434275	     29.28240684	     -7.26169634	     -6.47085292	     19.31496969	      0.33710982	      9.00366222	      2.07503215	     -7.49999987	     29.72121154	     -8.22977863	     -2.54635768	     18.83970181	      0.32881483	      4.98971031	      7.86367940	     -7.49999987	     -2.18597239	     -0.15969583	     -1.47706874	     37.94486912	      2.72497127	     65.32004395	    126.57809201	     90.03436493	     35.66542441	     -2.85883185	     58.99643275	    134.74642054	     80.71117154
      2.43333330	    -11.65637958	     -0.40410458	      2.16039348	     -0.23463720	      0.90041340	      0.09416242	     26.48801705	     -6.94071837	     -6.55429455	     17.31494118	      0.30220273	      8.18170242	      2.25301653	     -7.49999987	     27.01473644	     -8.20157440	     -2.54767132	     16.74715106	      0.29229293	      4.90286468	      8.10745907	     -7.49999987	     -2.14084716	     -0.00882516	     -1.23096376	     37.48211567	      2.57406704	     64.75534390	    126.45413950	     89.32816977	     34.97048257	     -2.90070510	     58.66910662	    134.68514543	     80.37091341
      2.45000000	    -10.25413158	     -0.42726408	      2.26417291	     -0.22470847	      0.90532149	      0.09536793	     23.53224181	     -6.63286045	     -6.81277646	     15.59350128	      0.27215794	      7.46977511	      2.17337338	     -7.49999987	     23.93596819	     -8.20798432	     -2.69610874	     14.71283495	      0.25678741	      4.42889882	      8.15010346	     -7.49999987	     -2.10052803	     -0.05127360	     -1.40462347	     36.62810111	      2.84631815	     64.77311916	    126.46317828	     89.00868990	     34.17342321	     -3.11108809	     58.16376650	    134.51237085	     79.92851510
      2.46666670	     -8.81426709	     -0.40715685	      2.29882870	     -0.21936482	      0.91644704	      0.09394868	     20.39237473	     -6.37378857	     -7.17071115	     13.44730722	      0.23469979	      6.39735866	      2.37110423	     -7.49999987	     20.78981602	     -8.15799339	     -3.17510873	     12.66838650	      0.22110506	      3.55238490	      8.60572802	     -7.49999987	     -2.09349920	     -0.07611128	     -1.59646084	     35.63053002	      2.93578204	     64.97958001	    126.28192118	     87.29727208	     33.37113304	     -3.49584150	     57.77789245	    134.27337983	     78.00240899
      2.48333330	     -7.44335614	     -0.45413737	      2.26866352	     -0.21597996	      0.92016408	      0.09301903	     17.52917663	     -6.07847948	     -7.76946472	     11.40563278	      0.19906585	      5.68056632	      3.06269127	     -7.49999987	     17.95965911	     -8.15201631	     -3.55880705	     10.81226423	      0.18870961	      2.83870899	      8.72600744	     -7.49999987	     -2.14344549	     -0.00435024	     -1.80334285	     34.68863884	      2.98056359	     64.72850946	    126.10289484	     87.60620739	     32.46748823	     -3.75847133	     57.19915562	    134.07281876	     78.06403541
